<mxfile host="app.diagrams.net" modified="2023-11-01T22:46:28.156Z" agent="Mozilla/5.0 (Windows NT 10.0; Win64; x64) AppleWebKit/537.36 (KHTML, like Gecko) Chrome/118.0.0.0 Safari/537.36 Edg/118.0.2088.76" etag="SUba57gTB9UIP7BcKMaW" version="22.0.8" type="github">
  <diagram name="Página-1" id="88XU3ZMUUMRvsy-3oLPo">
    <mxGraphModel dx="1002" dy="-600" grid="1" gridSize="10" guides="1" tooltips="1" connect="1" arrows="1" fold="1" page="1" pageScale="1" pageWidth="827" pageHeight="1169" math="0" shadow="0">
      <root>
        <mxCell id="0" />
        <mxCell id="1" parent="0" />
        <mxCell id="ruHgBzXR7xuqMM93KKvb-80" value="&lt;font style=&quot;font-size: 20px;&quot;&gt;Biblioteca&lt;/font&gt;" style="text;html=1;strokeColor=#b85450;fillColor=#f8cecc;align=center;verticalAlign=middle;whiteSpace=wrap;rounded=0;" parent="1" vertex="1">
          <mxGeometry x="250" y="1210" width="310" height="30" as="geometry" />
        </mxCell>
        <mxCell id="ruHgBzXR7xuqMM93KKvb-81" value="SOCIO" style="rounded=0;whiteSpace=wrap;html=1;" parent="1" vertex="1">
          <mxGeometry x="148" y="1430" width="120" height="60" as="geometry" />
        </mxCell>
        <mxCell id="ruHgBzXR7xuqMM93KKvb-82" value="LIBRO" style="rounded=0;whiteSpace=wrap;html=1;" parent="1" vertex="1">
          <mxGeometry x="545" y="1430" width="120" height="60" as="geometry" />
        </mxCell>
        <mxCell id="ruHgBzXR7xuqMM93KKvb-83" value="Coge Prestado" style="rhombus;whiteSpace=wrap;html=1;" parent="1" vertex="1">
          <mxGeometry x="350" y="1430" width="120" height="60" as="geometry" />
        </mxCell>
        <mxCell id="ruHgBzXR7xuqMM93KKvb-84" value="" style="endArrow=none;html=1;rounded=0;entryX=0;entryY=0.5;entryDx=0;entryDy=0;exitX=1;exitY=0.5;exitDx=0;exitDy=0;" parent="1" source="ruHgBzXR7xuqMM93KKvb-81" target="ruHgBzXR7xuqMM93KKvb-83" edge="1">
          <mxGeometry width="50" height="50" relative="1" as="geometry">
            <mxPoint x="255" y="1570" as="sourcePoint" />
            <mxPoint x="305" y="1520" as="targetPoint" />
          </mxGeometry>
        </mxCell>
        <mxCell id="ruHgBzXR7xuqMM93KKvb-85" value="" style="endArrow=none;html=1;rounded=0;entryX=0;entryY=0.5;entryDx=0;entryDy=0;exitX=1;exitY=0.5;exitDx=0;exitDy=0;" parent="1" source="ruHgBzXR7xuqMM93KKvb-83" target="ruHgBzXR7xuqMM93KKvb-82" edge="1">
          <mxGeometry width="50" height="50" relative="1" as="geometry">
            <mxPoint x="478" y="1520" as="sourcePoint" />
            <mxPoint x="560" y="1520" as="targetPoint" />
          </mxGeometry>
        </mxCell>
        <mxCell id="ruHgBzXR7xuqMM93KKvb-87" value="0:N" style="text;html=1;strokeColor=none;fillColor=none;align=center;verticalAlign=middle;whiteSpace=wrap;rounded=0;" parent="1" vertex="1">
          <mxGeometry x="255" y="1430" width="60" height="30" as="geometry" />
        </mxCell>
        <mxCell id="ruHgBzXR7xuqMM93KKvb-88" value="0:N" style="text;html=1;strokeColor=none;fillColor=none;align=center;verticalAlign=middle;whiteSpace=wrap;rounded=0;" parent="1" vertex="1">
          <mxGeometry x="495" y="1430" width="60" height="30" as="geometry" />
        </mxCell>
        <mxCell id="ruHgBzXR7xuqMM93KKvb-89" value="#NumeroSocio" style="ellipse;whiteSpace=wrap;html=1;" parent="1" vertex="1">
          <mxGeometry x="63" y="1360" width="90" height="40" as="geometry" />
        </mxCell>
        <mxCell id="ruHgBzXR7xuqMM93KKvb-90" value="Nombre Completo" style="ellipse;whiteSpace=wrap;html=1;" parent="1" vertex="1">
          <mxGeometry x="25" y="1410" width="90" height="40" as="geometry" />
        </mxCell>
        <mxCell id="ruHgBzXR7xuqMM93KKvb-91" value="DNI" style="ellipse;whiteSpace=wrap;html=1;" parent="1" vertex="1">
          <mxGeometry x="25" y="1470" width="90" height="40" as="geometry" />
        </mxCell>
        <mxCell id="ruHgBzXR7xuqMM93KKvb-92" value="Dirección" style="ellipse;whiteSpace=wrap;html=1;" parent="1" vertex="1">
          <mxGeometry x="45" y="1530" width="90" height="40" as="geometry" />
        </mxCell>
        <mxCell id="ruHgBzXR7xuqMM93KKvb-93" value="Teléfono" style="ellipse;whiteSpace=wrap;html=1;" parent="1" vertex="1">
          <mxGeometry x="135" y="1570" width="90" height="40" as="geometry" />
        </mxCell>
        <mxCell id="ruHgBzXR7xuqMM93KKvb-94" value="" style="endArrow=none;html=1;rounded=0;exitX=1;exitY=1;exitDx=0;exitDy=0;entryX=0.25;entryY=0;entryDx=0;entryDy=0;" parent="1" source="ruHgBzXR7xuqMM93KKvb-89" target="ruHgBzXR7xuqMM93KKvb-81" edge="1">
          <mxGeometry width="50" height="50" relative="1" as="geometry">
            <mxPoint x="200" y="1390" as="sourcePoint" />
            <mxPoint x="250" y="1340" as="targetPoint" />
          </mxGeometry>
        </mxCell>
        <mxCell id="ruHgBzXR7xuqMM93KKvb-95" value="" style="endArrow=none;html=1;rounded=0;exitX=1;exitY=0.5;exitDx=0;exitDy=0;entryX=0;entryY=0.25;entryDx=0;entryDy=0;" parent="1" source="ruHgBzXR7xuqMM93KKvb-90" target="ruHgBzXR7xuqMM93KKvb-81" edge="1">
          <mxGeometry width="50" height="50" relative="1" as="geometry">
            <mxPoint x="300" y="1380" as="sourcePoint" />
            <mxPoint x="350" y="1330" as="targetPoint" />
          </mxGeometry>
        </mxCell>
        <mxCell id="ruHgBzXR7xuqMM93KKvb-96" value="" style="endArrow=none;html=1;rounded=0;exitX=1;exitY=0;exitDx=0;exitDy=0;entryX=0;entryY=0.5;entryDx=0;entryDy=0;" parent="1" source="ruHgBzXR7xuqMM93KKvb-91" target="ruHgBzXR7xuqMM93KKvb-81" edge="1">
          <mxGeometry width="50" height="50" relative="1" as="geometry">
            <mxPoint x="310" y="1350" as="sourcePoint" />
            <mxPoint x="360" y="1300" as="targetPoint" />
          </mxGeometry>
        </mxCell>
        <mxCell id="ruHgBzXR7xuqMM93KKvb-97" value="" style="endArrow=none;html=1;rounded=0;entryX=0.197;entryY=0.983;entryDx=0;entryDy=0;entryPerimeter=0;" parent="1" source="ruHgBzXR7xuqMM93KKvb-92" target="ruHgBzXR7xuqMM93KKvb-81" edge="1">
          <mxGeometry width="50" height="50" relative="1" as="geometry">
            <mxPoint x="320" y="1410" as="sourcePoint" />
            <mxPoint x="370" y="1360" as="targetPoint" />
          </mxGeometry>
        </mxCell>
        <mxCell id="ruHgBzXR7xuqMM93KKvb-98" value="" style="endArrow=none;html=1;rounded=0;exitX=0.5;exitY=0;exitDx=0;exitDy=0;" parent="1" source="ruHgBzXR7xuqMM93KKvb-93" target="ruHgBzXR7xuqMM93KKvb-81" edge="1">
          <mxGeometry width="50" height="50" relative="1" as="geometry">
            <mxPoint x="180" y="1570" as="sourcePoint" />
            <mxPoint x="230" y="1520" as="targetPoint" />
          </mxGeometry>
        </mxCell>
        <mxCell id="ruHgBzXR7xuqMM93KKvb-99" value="" style="endArrow=none;html=1;rounded=0;entryX=0.058;entryY=0.74;entryDx=0;entryDy=0;entryPerimeter=0;exitX=0.75;exitY=0;exitDx=0;exitDy=0;" parent="1" source="ruHgBzXR7xuqMM93KKvb-82" target="ruHgBzXR7xuqMM93KKvb-100" edge="1">
          <mxGeometry width="50" height="50" relative="1" as="geometry">
            <mxPoint x="550" y="1420" as="sourcePoint" />
            <mxPoint x="600" y="1370" as="targetPoint" />
          </mxGeometry>
        </mxCell>
        <mxCell id="ruHgBzXR7xuqMM93KKvb-100" value="#ISBN" style="ellipse;whiteSpace=wrap;html=1;" parent="1" vertex="1">
          <mxGeometry x="660" y="1370" width="90" height="40" as="geometry" />
        </mxCell>
        <mxCell id="ruHgBzXR7xuqMM93KKvb-101" value="Autor" style="ellipse;whiteSpace=wrap;html=1;" parent="1" vertex="1">
          <mxGeometry x="705" y="1430" width="90" height="40" as="geometry" />
        </mxCell>
        <mxCell id="ruHgBzXR7xuqMM93KKvb-102" value="" style="endArrow=none;html=1;rounded=0;entryX=0;entryY=0.5;entryDx=0;entryDy=0;exitX=1;exitY=0.5;exitDx=0;exitDy=0;" parent="1" source="ruHgBzXR7xuqMM93KKvb-82" target="ruHgBzXR7xuqMM93KKvb-101" edge="1">
          <mxGeometry width="50" height="50" relative="1" as="geometry">
            <mxPoint x="650" y="1610" as="sourcePoint" />
            <mxPoint x="700" y="1560" as="targetPoint" />
          </mxGeometry>
        </mxCell>
        <mxCell id="ruHgBzXR7xuqMM93KKvb-103" value="Título" style="ellipse;whiteSpace=wrap;html=1;" parent="1" vertex="1">
          <mxGeometry x="715" y="1490" width="90" height="40" as="geometry" />
        </mxCell>
        <mxCell id="ruHgBzXR7xuqMM93KKvb-104" value="" style="endArrow=none;html=1;rounded=0;exitX=1;exitY=1;exitDx=0;exitDy=0;entryX=0;entryY=0.5;entryDx=0;entryDy=0;" parent="1" source="ruHgBzXR7xuqMM93KKvb-82" target="ruHgBzXR7xuqMM93KKvb-103" edge="1">
          <mxGeometry width="50" height="50" relative="1" as="geometry">
            <mxPoint x="640" y="1580" as="sourcePoint" />
            <mxPoint x="690" y="1530" as="targetPoint" />
          </mxGeometry>
        </mxCell>
        <mxCell id="ruHgBzXR7xuqMM93KKvb-105" value="Editorial" style="ellipse;whiteSpace=wrap;html=1;" parent="1" vertex="1">
          <mxGeometry x="670" y="1550" width="90" height="40" as="geometry" />
        </mxCell>
        <mxCell id="ruHgBzXR7xuqMM93KKvb-106" value="Año &lt;br&gt;publicación" style="ellipse;whiteSpace=wrap;html=1;" parent="1" vertex="1">
          <mxGeometry x="565" y="1570" width="90" height="40" as="geometry" />
        </mxCell>
        <mxCell id="ruHgBzXR7xuqMM93KKvb-107" value="" style="endArrow=none;html=1;rounded=0;entryX=0.75;entryY=1;entryDx=0;entryDy=0;exitX=0.409;exitY=-0.06;exitDx=0;exitDy=0;exitPerimeter=0;" parent="1" source="ruHgBzXR7xuqMM93KKvb-105" target="ruHgBzXR7xuqMM93KKvb-82" edge="1">
          <mxGeometry width="50" height="50" relative="1" as="geometry">
            <mxPoint x="530" y="1550" as="sourcePoint" />
            <mxPoint x="580" y="1500" as="targetPoint" />
          </mxGeometry>
        </mxCell>
        <mxCell id="ruHgBzXR7xuqMM93KKvb-108" value="" style="endArrow=none;html=1;rounded=0;entryX=0.5;entryY=1;entryDx=0;entryDy=0;exitX=0.5;exitY=0;exitDx=0;exitDy=0;" parent="1" source="ruHgBzXR7xuqMM93KKvb-106" target="ruHgBzXR7xuqMM93KKvb-82" edge="1">
          <mxGeometry width="50" height="50" relative="1" as="geometry">
            <mxPoint x="500" y="1580" as="sourcePoint" />
            <mxPoint x="550" y="1530" as="targetPoint" />
          </mxGeometry>
        </mxCell>
        <mxCell id="ruHgBzXR7xuqMM93KKvb-111" value="Fecha &lt;br&gt;tope&amp;nbsp;" style="ellipse;whiteSpace=wrap;html=1;" parent="1" vertex="1">
          <mxGeometry x="288" y="1350" width="90" height="40" as="geometry" />
        </mxCell>
        <mxCell id="ruHgBzXR7xuqMM93KKvb-112" value="Fecha &lt;br&gt;préstamo" style="ellipse;whiteSpace=wrap;html=1;" parent="1" vertex="1">
          <mxGeometry x="365" y="1310" width="90" height="40" as="geometry" />
        </mxCell>
        <mxCell id="ruHgBzXR7xuqMM93KKvb-113" value="Fecha &lt;br&gt;Devolución" style="ellipse;whiteSpace=wrap;html=1;" parent="1" vertex="1">
          <mxGeometry x="430" y="1350" width="90" height="40" as="geometry" />
        </mxCell>
        <mxCell id="ruHgBzXR7xuqMM93KKvb-114" value="" style="endArrow=none;html=1;rounded=0;entryX=0.689;entryY=0.92;entryDx=0;entryDy=0;entryPerimeter=0;exitX=0.34;exitY=0.16;exitDx=0;exitDy=0;exitPerimeter=0;" parent="1" source="ruHgBzXR7xuqMM93KKvb-83" target="ruHgBzXR7xuqMM93KKvb-111" edge="1">
          <mxGeometry width="50" height="50" relative="1" as="geometry">
            <mxPoint x="340" y="1600" as="sourcePoint" />
            <mxPoint x="390" y="1550" as="targetPoint" />
          </mxGeometry>
        </mxCell>
        <mxCell id="ruHgBzXR7xuqMM93KKvb-115" value="" style="endArrow=none;html=1;rounded=0;entryX=0.5;entryY=1;entryDx=0;entryDy=0;exitX=0.5;exitY=0;exitDx=0;exitDy=0;" parent="1" source="ruHgBzXR7xuqMM93KKvb-83" target="ruHgBzXR7xuqMM93KKvb-112" edge="1">
          <mxGeometry width="50" height="50" relative="1" as="geometry">
            <mxPoint x="401" y="1450" as="sourcePoint" />
            <mxPoint x="360" y="1397" as="targetPoint" />
          </mxGeometry>
        </mxCell>
        <mxCell id="ruHgBzXR7xuqMM93KKvb-116" value="" style="endArrow=none;html=1;rounded=0;entryX=0.347;entryY=1.02;entryDx=0;entryDy=0;entryPerimeter=0;exitX=1;exitY=0;exitDx=0;exitDy=0;" parent="1" source="ruHgBzXR7xuqMM93KKvb-83" target="ruHgBzXR7xuqMM93KKvb-113" edge="1">
          <mxGeometry width="50" height="50" relative="1" as="geometry">
            <mxPoint x="411" y="1460" as="sourcePoint" />
            <mxPoint x="370" y="1407" as="targetPoint" />
          </mxGeometry>
        </mxCell>
      </root>
    </mxGraphModel>
  </diagram>
</mxfile>
